<mxfile host="app.diagrams.net" modified="2023-10-23T15:33:22.597Z" agent="Mozilla/5.0 (X11; Linux x86_64; rv:109.0) Gecko/20100101 Firefox/114.0" version="22.0.6" etag="7ubMtlIP5RxkmEx11ir4" type="github">
  <diagram name="Page-1" id="fOSJ8p_m2rN0Ya-rLz7y">
    <mxGraphModel>
      <root>
        <mxCell id="0" />
        <mxCell id="1" parent="0" />
      </root>
    </mxGraphModel>
  </diagram>
</mxfile>
